<?xml version="1.0" encoding="UTF-8"?>
<svg xmlns="http://www.w3.org/2000/svg" xmlns:xlink="http://www.w3.org/1999/xlink" width="243.78pt" height="153.07pt" viewBox="0 0 243.78 153.07" version="1.1">
<g id="surface1">
<path style=" stroke:none;fill-rule:nonzero;fill:rgb(100%,100%,100%);fill-opacity:1;" d="M 243.777344 153.070313 L 0 153.070313 L 0 0 L 243.777344 0 L 243.777344 153.070313 "/>
<path style=" stroke:none;fill-rule:nonzero;fill:rgb(0.799561%,20.399475%,20.799255%);fill-opacity:1;" d="M 52.996094 147.824219 L 77.703125 147.824219 C 77.703125 147.824219 84.6875 138.902344 85.363281 137.101563 C 86.039063 135.300781 87.839844 137.328125 87.390625 139.351563 C 86.941406 141.382813 84.910156 144.085938 84.6875 145.210938 C 84.460938 146.335938 84.910156 147.238281 86.941406 144.984375 C 88.96875 142.734375 90.316406 137.101563 90.542969 136.425781 C 90.769531 135.75 91.445313 136.652344 91.667969 138.003906 C 91.667969 138.003906 91.894531 140.253906 92.796875 138.902344 C 93.695313 137.550781 94.375 134.398438 94.597656 137.777344 C 94.824219 141.15625 91.667969 142.507813 90.992188 142.957031 C 90.320313 143.410156 92.796875 143.632813 92.34375 144.535156 C 91.894531 145.4375 90.09375 147.6875 88.96875 147.6875 L 96.175781 147.6875 C 96.175781 147.6875 109.015625 137.777344 110.367188 125.613281 C 110.816406 123.585938 104.734375 126.515625 103.835938 121.332031 C 103.609375 119.082031 100.230469 124.488281 99.554688 124.710938 C 98.878906 124.9375 97.976563 123.136719 101.355469 117.730469 C 102.707031 115.925781 99.777344 114.800781 97.753906 117.277344 C 95.722656 119.753906 94.597656 117.730469 96.402344 115.476563 C 98.203125 113.226563 101.355469 108.492188 107.890625 107.816406 C 114.421875 107.140625 118.925781 106.691406 123.433594 110.070313 C 123.433594 110.070313 126.132813 110.292969 126.132813 108.042969 C 126.132813 105.789063 120.277344 106.464844 118.476563 105.789063 C 116.675781 105.113281 113.070313 99.257813 112.617188 98.582031 C 112.167969 97.90625 109.691406 97.457031 108.789063 98.355469 C 107.890625 99.257813 104.734375 105.339844 101.804688 106.464844 C 98.878906 107.59375 99.328125 108.269531 99.554688 106.464844 C 99.554688 106.464844 97.527344 106.242188 96.625 107.816406 C 95.722656 109.394531 93.023438 112.773438 94.148438 108.71875 C 94.148438 108.71875 96.851563 105.789063 93.472656 106.238281 C 93.472656 106.238281 89.867188 109.617188 91.21875 106.238281 C 92.570313 102.863281 94.148438 105.789063 94.597656 102.863281 C 95.046875 99.933594 95.722656 101.734375 97.078125 101.285156 C 98.425781 100.835938 97.078125 98.804688 99.328125 98.128906 C 101.132813 97.679688 97.976563 94.527344 96.625 96.554688 C 95.273438 98.582031 93.695313 97.679688 93.246094 98.582031 C 92.796875 99.484375 91.667969 101.511719 90.769531 101.734375 C 89.867188 101.960938 90.769531 103.535156 89.417969 103.535156 C 88.066406 103.535156 88.742188 102.183594 89.191406 100.835938 C 89.644531 99.484375 91.21875 98.582031 91.21875 97.679688 C 91.21875 96.777344 90.316406 96.101563 88.742188 97.003906 C 87.164063 97.90625 86.488281 96.78125 87.164063 94.976563 C 87.839844 93.175781 93.246094 86.417969 95.722656 86.191406 C 98.203125 85.964844 100.679688 83.265625 108.789063 96.328125 C 109.464844 97.457031 111.945313 96.328125 111.945313 96.328125 C 111.945313 96.328125 114.421875 91.371094 114.871094 90.246094 C 115.324219 89.121094 118.699219 85.742188 120.503906 85.066406 C 122.304688 84.390625 123.65625 81.460938 122.53125 79.882813 C 121.402344 78.308594 119.828125 78.082031 119.378906 79.660156 C 118.925781 81.234375 117.574219 78.53125 117.574219 78.53125 C 117.574219 78.53125 116.222656 79.207031 114.195313 79.660156 C 112.167969 80.109375 108.566406 79.660156 107.214844 79.433594 C 105.859375 79.210938 103.382813 80.109375 102.480469 81.011719 C 101.582031 81.914063 100.453125 81.011719 100.679688 79.882813 C 100.90625 78.757813 99.328125 75.832031 100.679688 76.28125 C 102.03125 76.730469 105.410156 79.210938 106.3125 76.28125 C 107.214844 73.351563 102.03125 69.523438 102.03125 67.945313 C 102.03125 66.367188 104.734375 64.117188 101.132813 63.664063 C 97.976563 64.117188 97.753906 63.890625 97.078125 62.765625 C 96.402344 61.636719 95.949219 59.609375 97.300781 59.609375 C 98.652344 59.609375 100.003906 58.933594 100.003906 56.683594 C 100.003906 54.429688 100.679688 52.851563 102.480469 54.203125 C 104.285156 55.554688 107.214844 58.035156 107.890625 56.90625 C 108.5625 55.78125 107.890625 52.175781 109.691406 52.175781 C 111.492188 52.175781 113.296875 53.078125 113.519531 56.683594 C 113.519531 56.683594 114.648438 57.359375 116.222656 56.007813 C 117.800781 54.65625 120.503906 51.953125 120.054688 54.203125 C 119.601563 56.457031 120.953125 55.78125 121.179688 56.683594 C 121.402344 57.582031 122.078125 60.960938 123.433594 59.386719 C 124.785156 57.808594 125.683594 57.359375 126.585938 57.132813 C 127.484375 56.90625 127.035156 55.105469 129.0625 55.105469 C 131.089844 55.105469 137.621094 54.429688 137.847656 51.5 C 138.074219 48.574219 138.75 44.519531 137.847656 42.941406 C 136.949219 41.363281 136.046875 37.535156 137.175781 36.183594 C 138.300781 34.832031 138.523438 34.605469 135.820313 34.15625 C 133.117188 33.707031 130.1875 31.902344 130.1875 30.101563 C 130.1875 28.300781 131.316406 29.875 132.441406 29.875 C 133.566406 29.875 138.75 28.300781 138.75 29.875 C 138.75 31.453125 138.300781 35.507813 140.101563 34.605469 C 141.902344 33.707031 145.957031 33.707031 145.507813 35.734375 C 145.058594 37.761719 144.382813 40.6875 146.183594 39.5625 C 147.984375 38.4375 154.066406 35.957031 155.417969 28.523438 C 156.769531 21.089844 150.015625 13.429688 148.214844 12.078125 C 146.40625 10.726563 147.984375 11.179688 147.984375 11.179688 C 147.984375 11.179688 147.535156 7.125 146.183594 7.347656 L 52.996094 7.347656 L 52.996094 64.792969 C 52.996094 64.792969 55.628906 65.691406 57.203125 63.214844 C 58.78125 60.738281 63.0625 52.851563 70.945313 54.878906 C 72.296875 55.78125 70.269531 56.457031 70.269531 56.457031 C 70.269531 56.457031 61.035156 57.808594 59.007813 62.765625 C 58.332031 64.117188 60.359375 63.664063 61.257813 62.988281 C 62.160156 62.3125 66.890625 59.160156 66.214844 61.414063 C 65.539063 63.664063 56.527344 65.917969 54.726563 70.421875 C 54.726563 70.421875 56.527344 72 58.78125 69.296875 C 61.035156 66.59375 64.1875 64.792969 63.738281 66.367188 C 63.285156 67.945313 53.824219 74.703125 53.148438 75.832031 L 53.148438 86.640625 C 53.148438 86.640625 60.132813 76.730469 62.609375 77.40625 C 65.089844 78.082031 59.457031 85.292969 58.554688 86.191406 C 58.554688 86.191406 58.105469 84.164063 59.007813 83.039063 C 59.007813 83.039063 53.375 89.34375 53.148438 94.976563 C 52.925781 100.609375 52.996094 147.824219 52.996094 147.824219 "/>
<path style=" stroke:none;fill-rule:nonzero;fill:rgb(100%,100%,100%);fill-opacity:1;" d="M 56.078125 24.921875 C 56.078125 24.921875 57.882813 20.640625 60.585938 20.414063 C 63.285156 20.191406 70.945313 19.289063 81.082031 29.652344 C 81.082031 29.652344 80.179688 30.777344 75.453125 29.425781 C 70.71875 28.074219 63.0625 21.542969 62.160156 22.894531 C 61.257813 24.246094 61.484375 24.695313 59.007813 24.46875 C 59.007813 24.46875 57.429688 26.046875 56.078125 24.921875 "/>
<path style=" stroke:none;fill-rule:nonzero;fill:rgb(100%,100%,100%);fill-opacity:1;" d="M 71.171875 12.53125 C 71.171875 12.53125 77.253906 18.386719 77.703125 20.867188 C 77.703125 20.867188 77.703125 15.460938 78.832031 17.710938 C 79.957031 19.964844 82.660156 25.597656 84.011719 26.273438 C 85.363281 26.945313 84.460938 21.765625 81.757813 18.839844 C 79.957031 16.8125 82.210938 15.910156 83.335938 17.710938 C 84.460938 19.515625 87.390625 25.144531 88.292969 26.945313 C 89.191406 28.75 91.21875 30.101563 92.121094 30.328125 C 93.023438 30.550781 91.894531 28.523438 94.148438 29.875 C 94.148438 29.875 90.542969 26.273438 89.867188 24.695313 C 89.191406 23.117188 86.039063 15.234375 78.605469 12.757813 C 71.171875 10.277344 71.171875 12.53125 71.171875 12.53125 "/>
<path style=" stroke:none;fill-rule:nonzero;fill:rgb(100%,100%,100%);fill-opacity:1;" d="M 86.265625 47.671875 C 86.265625 47.671875 86.714844 44.742188 89.867188 44.519531 C 93.023438 44.292969 95.050781 40.914063 96.851563 37.308594 C 97.753906 35.28125 105.1875 37.308594 104.511719 43.390625 C 103.835938 49.472656 100.453125 49.023438 100.453125 46.769531 C 100.453125 44.519531 100.003906 41.363281 99.105469 42.941406 C 98.203125 44.519531 96.851563 49.023438 93.023438 47.898438 C 89.191406 46.769531 86.941406 48.347656 86.265625 47.671875 "/>
<path style=" stroke:none;fill-rule:nonzero;fill:rgb(100%,100%,100%);fill-opacity:1;" d="M 120.730469 49.699219 C 120.730469 49.699219 115.773438 43.617188 119.828125 37.984375 C 121.628906 35.734375 125.910156 38.4375 127.035156 40.464844 C 128.164063 42.492188 131.316406 45.191406 134.246094 46.09375 C 137.175781 46.996094 136.949219 49.925781 134.472656 49.25 C 131.992188 48.574219 129.738281 48.800781 128.164063 48.574219 C 126.585938 48.347656 124.558594 45.871094 124.109375 44.742188 L 122.304688 44.519531 C 122.304688 44.519531 121.402344 46.769531 122.078125 47.671875 C 122.757813 48.574219 121.628906 50.375 120.730469 49.699219 "/>
<path style=" stroke:none;fill-rule:nonzero;fill:rgb(0.799561%,20.399475%,20.799255%);fill-opacity:1;" d="M 125.011719 78.082031 C 125.011719 78.082031 125.683594 73.578125 124.332031 72 C 122.980469 70.425781 120.277344 67.945313 121.855469 65.242188 C 123.433594 62.539063 127.035156 63.441406 127.714844 62.539063 C 128.386719 61.636719 131.542969 56.457031 132.667969 56.230469 C 133.792969 56.007813 136.273438 56.007813 135.144531 59.160156 C 134.472656 60.960938 130.1875 62.765625 130.1875 64.117188 C 130.1875 65.46875 129.964844 69.972656 128.386719 70.648438 C 128.386719 70.648438 128.164063 75.15625 127.9375 76.28125 C 127.714844 77.40625 125.910156 79.210938 125.011719 78.082031 "/>
<path style=" stroke:none;fill-rule:nonzero;fill:rgb(0.799561%,20.399475%,20.799255%);fill-opacity:1;" d="M 106.539063 68.394531 C 106.539063 68.394531 102.484375 64.339844 106.988281 59.160156 C 108.789063 57.808594 109.914063 65.917969 108.789063 67.71875 L 108.339844 72.675781 C 108.339844 72.675781 106.085938 72.226563 106.085938 71.550781 C 106.085938 70.875 106.539063 68.394531 106.539063 68.394531 "/>
<path style=" stroke:none;fill-rule:nonzero;fill:rgb(100%,100%,100%);fill-opacity:1;" d="M 87.164063 54.203125 C 87.164063 54.203125 89.417969 57.808594 90.996094 57.359375 C 92.570313 56.90625 93.246094 56.683594 94.597656 57.132813 C 95.949219 57.582031 97.300781 56.007813 95.273438 55.332031 C 93.246094 54.65625 91.894531 56.007813 90.542969 55.332031 C 89.191406 54.65625 88.066406 53.753906 87.164063 54.203125 "/>
<path style=" stroke:none;fill-rule:nonzero;fill:rgb(47.499084%,75.698853%,30.599976%);fill-opacity:1;" d="M 154.105469 137.761719 C 152.523438 139.382813 150.535156 140.191406 148.136719 140.191406 C 146.183594 140.191406 142.824219 139.144531 141.195313 138.085938 C 139.570313 137.023438 138.269531 135.5 137.296875 133.511719 C 136.320313 131.523438 135.832031 129.34375 135.832031 126.972656 C 135.832031 124.453125 136.335938 122.085938 137.34375 119.875 C 138.347656 117.664063 139.636719 116 141.207031 114.890625 C 142.773438 113.777344 144.46875 113.222656 146.28125 113.222656 C 147.289063 113.222656 148.269531 113.410156 149.21875 113.785156 C 150.164063 114.164063 151.199219 114.808594 152.3125 115.71875 L 152.355469 115.792969 L 153.351563 115.792969 L 153.757813 123.425781 L 152.695313 123.425781 C 152.003906 120.5625 152.183594 118.476563 151.128906 117.121094 C 149.824219 115.421875 148.265625 114.574219 146.453125 114.574219 C 144.492188 114.574219 142.894531 115.519531 141.664063 117.414063 C 140.433594 119.304688 139.8125 122.507813 139.8125 127.019531 C 139.8125 130.820313 140.519531 133.714844 141.933594 135.707031 C 143.132813 137.394531 146.390625 138.753906 148.5625 138.753906 C 150.457031 138.753906 152.046875 138.09375 153.332031 136.777344 L 154.105469 137.761719 "/>
<path style=" stroke:none;fill-rule:nonzero;fill:rgb(47.499084%,75.698853%,30.599976%);fill-opacity:1;" d="M 156.9375 114.03125 L 169.179688 114.03125 C 171.746094 114.03125 173.714844 114.59375 175.078125 115.726563 C 176.441406 116.855469 177.121094 118.277344 177.121094 119.984375 C 177.121094 121.410156 176.648438 122.617188 175.699219 123.613281 C 174.746094 124.605469 173.3125 125.394531 171.402344 125.972656 C 173.769531 126.46875 175.542969 127.253906 176.726563 128.324219 C 177.90625 129.390625 178.5 130.742188 178.5 132.375 C 178.5 133.621094 178.160156 134.726563 177.488281 135.6875 C 176.816406 136.652344 175.695313 137.464844 174.128906 138.132813 C 172.5625 138.800781 170.78125 139.136719 168.789063 139.136719 L 159.945313 139.136719 L 159.960938 116.746094 C 159.960938 116.269531 159.820313 115.914063 159.539063 115.667969 C 159.253906 115.425781 158.84375 115.304688 158.296875 115.304688 L 156.9375 115.304688 Z M 163.597656 125.554688 L 168.347656 125.554688 C 169.808594 125.554688 170.972656 125.128906 171.835938 124.269531 C 172.703125 123.410156 173.136719 122.003906 173.136719 120.046875 C 173.136719 118.839844 172.929688 117.898438 172.515625 117.21875 C 172.101563 116.539063 171.503906 116.046875 170.714844 115.734375 C 169.929688 115.425781 168.566406 115.269531 166.632813 115.269531 C 165.265625 115.269531 164.414063 115.371094 164.085938 115.566406 C 163.757813 115.765625 163.597656 116.113281 163.597656 116.609375 Z M 163.597656 126.828125 L 163.597656 136.503906 C 163.597656 136.957031 163.726563 137.296875 163.992188 137.523438 C 164.261719 137.75 164.738281 137.863281 165.429688 137.863281 L 168.46875 137.863281 C 170.480469 137.863281 171.96875 137.421875 172.933594 136.53125 C 173.894531 135.644531 174.375 134.257813 174.375 132.378906 C 174.375 130.660156 173.875 129.304688 172.882813 128.316406 C 171.882813 127.324219 170.511719 126.828125 168.753906 126.828125 L 163.597656 126.828125 "/>
<path style=" stroke:none;fill-rule:nonzero;fill:rgb(47.499084%,75.698853%,30.599976%);fill-opacity:1;" d="M 112.652344 137.789063 L 112.652344 138.96875 L 123.90625 138.96875 L 123.90625 137.734375 L 119.832031 137.734375 L 119.832031 114.214844 L 112.601563 114.214844 L 112.601563 115.605469 L 116.351563 115.605469 L 116.351563 137.734375 L 112.652344 137.789063 "/>
<path style=" stroke:none;fill-rule:nonzero;fill:rgb(47.499084%,75.698853%,30.599976%);fill-opacity:1;" d="M 129.882813 138.984375 L 135.796875 138.984375 L 135.796875 137.71875 L 133.027344 137.71875 L 123.515625 125.003906 L 131.066406 115.523438 L 131.066406 114.1875 L 124.351563 114.1875 L 124.351563 115.523438 L 128.328125 115.679688 L 120.777344 125.003906 L 129.074219 137.78125 L 129.882813 138.984375 "/>
</g>
</svg>
